<?xml version="1.0" encoding="UTF-8"?>
<svg version="1.1" xmlns="http://www.w3.org/2000/svg" width="512" height="512">
<path d="M0 0 C168.96 0 337.92 0 512 0 C512 168.96 512 337.92 512 512 C343.04 512 174.08 512 0 512 C0 343.04 0 174.08 0 0 Z " fill="#FEFEFE" transform="translate(0,0)"/>
<path d="M0 0 C14.99766572 13.114449 24.5596547 27.99056786 30.51953125 46.9453125 C30.51953125 47.6053125 30.51953125 48.2653125 30.51953125 48.9453125 C22.8006255 49.13102863 15.08195244 49.27299642 7.36131859 49.35980988 C3.77571851 49.40148797 0.19165133 49.45796698 -3.39306641 49.54882812 C-6.85562449 49.63603922 -10.31671299 49.68364214 -13.78028488 49.70433044 C-15.73826395 49.72621305 -17.6956548 49.78862472 -19.65274048 49.85168457 C-28.38708792 49.85607976 -28.38708792 49.85607976 -31.59080505 47.18743896 C-33.10687878 45.17095655 -34.29923856 43.16897381 -35.48046875 40.9453125 C-40.37179908 35.68500367 -45.71123163 32.29837516 -52.48046875 29.9453125 C-53.47691406 29.58824219 -54.47335938 29.23117188 -55.5 28.86328125 C-70.77189704 24.62756426 -89.02269839 27.16530179 -102.73046875 34.6328125 C-115.90617374 43.16707596 -124.19338694 56.35565985 -127.5703125 71.55859375 C-131.71810464 93.26122347 -128.01982118 115.1241137 -115.7890625 133.484375 C-106.71948294 144.80495865 -91.46689059 150.88321184 -77.48046875 152.9453125 C-60.21240887 154.41193755 -43.90047334 151.17349948 -30.23046875 139.9453125 C-22.99302631 133.06974218 -18.61197732 124.33983821 -15.48046875 114.9453125 C-37.59046875 114.9453125 -59.70046875 114.9453125 -82.48046875 114.9453125 C-82.48046875 101.7453125 -82.48046875 88.5453125 -82.48046875 74.9453125 C-43.87046875 74.9453125 -5.26046875 74.9453125 34.51953125 74.9453125 C34.51953125 138.86640506 34.51953125 138.86640506 10.51953125 166.9453125 C9.94847656 167.61949219 9.37742188 168.29367187 8.7890625 168.98828125 C-8.58348251 187.78993022 -36.47628477 199.92399364 -61.76269531 201.09765625 C-65.41970532 201.19771124 -69.07213911 201.24310977 -72.73046875 201.2578125 C-74.46997803 201.26615112 -74.46997803 201.26615112 -76.24462891 201.2746582 C-87.88538652 201.17796868 -98.83706784 199.60346358 -109.85546875 195.8203125 C-111.20209595 195.36180908 -111.20209595 195.36180908 -112.57592773 194.89404297 C-138.28714036 185.83353 -159.34400012 168.06620128 -172.06640625 143.9375 C-173.30524431 141.30215357 -174.42302081 138.65807319 -175.48046875 135.9453125 C-175.83625 135.05457031 -176.19203125 134.16382813 -176.55859375 133.24609375 C-182.04573417 118.89353615 -183.7150541 105.27693427 -183.73046875 90.0078125 C-183.73147583 89.31689514 -183.73248291 88.62597778 -183.73352051 87.91412354 C-183.72305595 77.29906093 -183.14547352 67.27076388 -180.48046875 56.9453125 C-180.21363281 55.84316406 -179.94679687 54.74101562 -179.671875 53.60546875 C-174.84873459 35.92062057 -164.93024313 21.15687378 -152.48046875 7.9453125 C-151.866875 7.25566406 -151.25328125 6.56601563 -150.62109375 5.85546875 C-114.13078742 -33.51975496 -39.92990274 -33.07579345 0 0 Z " fill="#025A4A" transform="translate(223.48046875,111.0546875)"/>
<path d="M0 0 C13.26093262 11.2274454 21.79438253 26.53530706 23.39453125 44.02734375 C25.54271925 74.40776762 13.4190749 99.57887344 -5.96704102 122.20654297 C-8.23958296 124.73204108 -10.64238822 127.11098412 -13.06542969 129.49121094 C-14.7919236 131.21332566 -16.36714885 133.02129535 -17.91796875 134.90234375 C-22.08385693 139.72845082 -26.82631934 143.82399548 -31.60546875 148.02734375 C-32.39953125 148.75953125 -33.19359375 149.49171875 -34.01171875 150.24609375 C-40.626256 156.34521252 -47.38574893 161.47371312 -54.60546875 167.02734375 C-27.87546875 167.35734375 -1.14546875 167.68734375 26.39453125 168.02734375 C26.39453125 181.88734375 26.39453125 195.74734375 26.39453125 210.02734375 C-24.09546875 210.02734375 -74.58546875 210.02734375 -126.60546875 210.02734375 C-126.60546875 197.15734375 -126.60546875 184.28734375 -126.60546875 171.02734375 C-122.97546875 168.05734375 -119.34546875 165.08734375 -115.60546875 162.02734375 C-113.4745309 160.24274343 -111.34842935 158.45232635 -109.23046875 156.65234375 C-108.13288432 155.71996753 -107.03522583 154.78767849 -105.9375 153.85546875 C-105.11499756 153.15647461 -105.11499756 153.15647461 -104.27587891 152.44335938 C-102.60171034 151.02415772 -100.922754 149.61083604 -99.2421875 148.19921875 C-93.35643485 143.2506769 -87.55192105 138.23812545 -81.859375 133.06640625 C-79.83664185 131.23648128 -77.7917744 129.43852647 -75.73046875 127.65234375 C-74.35459732 126.44500276 -72.97969135 125.23656113 -71.60546875 124.02734375 C-70.70054687 123.23972656 -69.795625 122.45210937 -68.86328125 121.640625 C-51.47810879 106.2829113 -31.25878099 83.81184044 -29.33203125 59.58984375 C-29.06981972 50.06954836 -30.29539755 42.5312122 -36.60546875 35.02734375 C-42.14250909 30.51360454 -48.35172935 30.4161048 -55.26171875 30.65234375 C-61.81649019 31.3874583 -65.71639702 33.60227943 -69.91796875 38.65234375 C-75.12050479 46.28649989 -75.69256912 53.89834747 -76.60546875 63.02734375 C-93.10546875 63.02734375 -109.60546875 63.02734375 -126.60546875 63.02734375 C-126.60546875 40.39987279 -120.81132034 22.05494105 -105.29296875 5.27734375 C-79.19379549 -19.35228146 -28.27998805 -22.23477831 0 0 Z " fill="#025A4A" transform="translate(393.60546875,101.97265625)"/>
<path d="M0 0 C7.38995093 4.82291534 12.19894395 10.03409045 16 18 C16.33902344 18.68449219 16.67804688 19.36898438 17.02734375 20.07421875 C20.22548389 27.81165458 19 34.04454169 19 43 C0.52 43 -17.96 43 -37 43 C-34.68950961 51.47943107 -34.68950961 51.47943107 -29 56 C-25.29240268 57.85379866 -21.04626515 57.45923868 -17 57 C-13.14455202 55.00342873 -11.40194908 53.60292362 -9 50 C-6.38623047 49.65942383 -6.38623047 49.65942383 -3.1171875 49.70703125 C-1.95058594 49.71669922 -0.78398437 49.72636719 0.41796875 49.73632812 C1.64128906 49.76146484 2.86460937 49.78660156 4.125 49.8125 C5.97158203 49.83280273 5.97158203 49.83280273 7.85546875 49.85351562 C10.90407843 49.88896457 13.951825 49.93837921 17 50 C13.81769225 60.31864326 9.38312713 67.2611364 0 73 C-10.46683476 78.3972311 -21.66342224 79.755597 -33.24609375 77.31640625 C-43.9395261 73.66092087 -52.01929968 67.74450351 -57.21875 57.62890625 C-62.35632761 46.45467495 -62.74869301 33.22312224 -60.19921875 21.234375 C-55.97494351 10.14383794 -48.3233452 2.96096844 -37.69921875 -1.94140625 C-26.89570773 -6.1783838 -9.86510518 -6.40779309 0 0 Z " fill="#040404" transform="translate(346,346)"/>
<path d="M0 0 C0.9590625 0.58394531 0.9590625 0.58394531 1.9375 1.1796875 C7.58081256 5.29054881 10.63312434 11.55828346 13 18 C13 19.65 13 21.3 13 23 C5.41 23 -2.18 23 -10 23 C-10.99 21.02 -11.98 19.04 -13 17 C-16.23914229 14.84057181 -17.24859733 14.72767022 -21 14.75 C-22.299375 14.74226563 -22.299375 14.74226563 -23.625 14.734375 C-26.265795 14.84585448 -26.265795 14.84585448 -29 17 C-29.66680368 19.95720628 -29.66680368 19.95720628 -29 23 C-25.14824291 25.94934543 -20.96078747 26.91217478 -16.3125 27.9375 C-5.06004044 30.62146734 4.53030791 33.58944943 11.6953125 43.296875 C14.46346153 49.03208197 13.90276579 56.39461461 12.37890625 62.48046875 C9.28407352 69.59170662 2.94370052 73.38408306 -3.9375 76.375 C-15.5216128 80.19888189 -29.00082724 79.05812298 -40 74 C-46.40430991 70.27139725 -52.12213357 64.95202243 -55 58 C-55 55.69 -55 53.38 -55 51 C-47.08 51 -39.16 51 -31 51 C-30.34 52.65 -29.68 54.3 -29 56 C-25.29364876 59.25709654 -21.89816252 59.32529374 -17.18359375 59.30078125 C-14.77402041 58.96887222 -13.10255783 58.19669391 -11 57 C-11 54.69 -11 52.38 -11 50 C-16.90832187 47.329893 -22.7656778 45.5084315 -29.0625 44.0625 C-38.58213634 41.80493562 -46.61195437 38.60162999 -52 30 C-53.91652346 24.38056392 -54.23986379 17.14338912 -52.05859375 11.61328125 C-50.83053709 9.59218486 -49.52424919 7.80636161 -48 6 C-47.236875 5.0925 -46.47375 4.185 -45.6875 3.25 C-34.33643795 -6.25321474 -12.66506762 -7.86619434 0 0 Z " fill="#030303" transform="translate(459,346)"/>
<path d="M0 0 C8.91 0 17.82 0 27 0 C30.55573134 11.57355692 34.0948689 23.13211198 37.28466797 34.81152344 C39.04960609 41.25288185 40.98599981 47.63170889 43 54 C45.79622094 47.31235807 48.15425813 40.60411919 50.19921875 33.65234375 C50.47973587 32.71443497 50.76025299 31.77652618 51.04927063 30.81019592 C51.93305164 27.8539126 52.81082176 24.89589671 53.6875 21.9375 C54.57541181 18.94713215 55.46468243 15.95719723 56.35786438 12.96839905 C56.91086001 11.11749493 57.4607491 9.2656593 58.00724792 7.41282654 C58.2545314 6.58428665 58.50181488 5.75574677 58.7565918 4.90209961 C58.97324997 4.17059189 59.18990814 3.43908417 59.41313171 2.68540955 C60 1 60 1 61 0 C62.92667507 -0.08748207 64.85651861 -0.10697334 66.78515625 -0.09765625 C67.95498047 -0.09443359 69.12480469 -0.09121094 70.33007812 -0.08789062 C71.56177734 -0.07951172 72.79347656 -0.07113281 74.0625 -0.0625 C75.91584961 -0.05573242 75.91584961 -0.05573242 77.80664062 -0.04882812 C80.87114117 -0.03699608 83.93554721 -0.02051173 87 0 C86.80446533 0.58587891 86.60893066 1.17175781 86.4074707 1.77539062 C85.28149516 5.15089433 84.15594577 8.52643408 83.04296875 11.90625 C78.41434391 25.94007142 73.3510144 39.82358418 68.33740234 53.72314453 C65.18504137 62.46836068 62.08150144 71.22957282 59 80 C48.77 80 38.54 80 28 80 C19.60446985 57.12941788 19.60446985 57.12941788 16.07958984 46.16455078 C14.8658515 42.4296247 13.53187921 38.78254722 12.05078125 35.14453125 C9.95413555 29.97769108 8.1698888 24.73588463 6.4375 19.4375 C6.14681641 18.55642578 5.85613281 17.67535156 5.55664062 16.76757812 C5.00953342 15.10912117 4.46368048 13.45024935 3.91967773 11.79077148 C2.62337261 7.85712033 1.3097335 3.9292005 0 0 Z " fill="#030303" transform="translate(92,343)"/>
<path d="M0 0 C7.92 0 15.84 0 24 0 C24 26.4 24 52.8 24 80 C16.08 80 8.16 80 0 80 C0 53.6 0 27.2 0 0 Z " fill="#015949" transform="translate(223,343)"/>
<path d="M0 0 C0.80434783 14.65700483 0.80434783 14.65700483 -4 21 C-7.55480614 24.55480614 -11.34802845 26.27704757 -16 28 C-16.99 28 -17.98 28 -19 28 C-19.375 25.375 -19.375 25.375 -19 22 C-17.19946381 19.66246179 -15.2392198 17.95931733 -13 16 C-13.33 15.01 -13.66 14.02 -14 13 C-15.12588014 13.95729916 -16.2506715 14.91587895 -17.375 15.875 C-18.31472656 16.67550781 -18.31472656 16.67550781 -19.2734375 17.4921875 C-22.80163867 20.57337676 -23.29885103 21.95019814 -23.625 26.625 C-23.69976562 27.62789063 -23.77453125 28.63078125 -23.8515625 29.6640625 C-23.90054688 30.43492187 -23.94953125 31.20578125 -24 32 C-25.32 32 -26.64 32 -28 32 C-28.91624136 14.08239112 -28.91624136 14.08239112 -24.41796875 8.4375 C-16.88197863 0.79770836 -10.39089036 -0.50733099 0 0 Z " fill="#0A5F4F" transform="translate(249,300)"/>
<path d="M0 0 C2.81079773 1.98767909 4.27636445 4.22460389 5.80078125 7.2734375 C5.80078125 8.5934375 5.80078125 9.9134375 5.80078125 11.2734375 C-4.42921875 11.2734375 -14.65921875 11.2734375 -25.19921875 11.2734375 C-24.05676437 5.56116558 -22.32584579 3.16913407 -18.19921875 -0.7265625 C-12.11530073 -4.31451415 -5.9416129 -3.2534657 0 0 Z " fill="#F8F8F8" transform="translate(334.19921875,363.7265625)"/>
</svg>
